<svg width="1147" height="349" viewBox="0 0 1147 349" fill="none" xmlns="http://www.w3.org/2000/svg">
<path d="M1074.59 90.2362L1045.25 34.2183L1021.53 74.5518C1015.06 75.731 998.738 79.0773 985.25 83.0293C985.988 91.4282 993.854 109.943 997.695 118.151L975.257 159.186C992.909 159.398 1029.65 157.114 1038.13 156.917C1044.74 161.447 1122.08 186.164 1141.87 172.829C1141.9 143.529 1097.03 105.559 1074.59 90.2362Z" stroke="black" stroke-width="8.99247"/>
<circle cx="1096.11" cy="145.313" r="9.9034" transform="rotate(73.6694 1096.11 145.313)" stroke="black" stroke-width="4.99582"/>
<circle cx="1070.47" cy="131.29" r="5.76963" transform="rotate(73.6694 1070.47 131.29)" stroke="black" stroke-width="4.99582"/>
<path d="M975.541 107C737.512 -13.723 290.497 64.6455 80.9402 85.7151C133.205 67.0188 641.845 -52.4454 997.749 65.43C966.43 60.305 959.596 89.9163 975.541 107Z" fill="url(#paint0_linear_6_122)"/>
<path d="M72.6601 157.089V126.978H194.041V157.089H149.923V290.374H116.544V157.089H72.6601ZM221.158 182.999V290.374H191.513V182.999H221.158ZM252.67 214.512C250.647 212.644 248.546 211.244 246.368 210.31C244.345 209.221 241.777 208.676 238.665 208.676C234.93 208.676 231.74 209.688 229.094 211.711C226.449 213.734 224.426 216.612 223.025 220.347C221.78 223.926 221.158 228.284 221.158 233.419L212.755 225.016C212.755 216.457 214.389 208.909 217.656 202.374C220.924 195.682 225.204 190.391 230.495 186.501C235.786 182.455 241.232 180.432 246.834 180.432C250.725 180.432 254.382 181.132 257.805 182.533C261.385 183.933 264.263 186.034 266.442 188.835L252.67 214.512ZM303.941 256.995C303.941 260.107 304.719 262.83 306.275 265.165C307.832 267.343 309.932 269.055 312.578 270.3C315.379 271.389 318.414 271.934 321.681 271.934C326.35 271.934 330.552 271 334.286 269.133C338.021 267.11 341.056 264.309 343.39 260.73C345.724 256.995 346.891 252.56 346.891 247.424L350.626 261.43C350.626 268.277 348.681 274.035 344.79 278.703C341.056 283.372 336.154 286.873 330.085 289.207C324.171 291.542 317.947 292.709 311.411 292.709C304.719 292.709 298.495 291.386 292.737 288.74C286.979 286.095 282.311 282.282 278.731 277.303C275.308 272.167 273.596 265.943 273.596 258.629C273.596 248.202 277.253 239.955 284.567 233.886C291.881 227.817 302.229 224.782 315.612 224.782C322.46 224.782 328.451 225.483 333.586 226.883C338.877 228.284 343.312 229.995 346.891 232.018C350.47 234.041 353.038 235.987 354.594 237.854V251.859C350.393 248.747 345.646 246.413 340.355 244.857C335.22 243.301 329.773 242.522 324.016 242.522C319.347 242.522 315.535 243.145 312.578 244.39C309.621 245.479 307.443 247.113 306.042 249.292C304.642 251.315 303.941 253.882 303.941 256.995ZM292.27 213.344L281.066 192.803C286.668 189.846 293.515 187.045 301.607 184.4C309.699 181.599 318.725 180.198 328.684 180.198C337.866 180.198 346.035 181.521 353.194 184.166C360.352 186.812 365.954 190.702 370 195.838C374.046 200.817 376.069 206.964 376.069 214.278V290.374H346.891V220.581C346.891 217.624 346.424 215.134 345.491 213.111C344.557 210.932 343.079 209.143 341.056 207.742C339.188 206.342 336.932 205.33 334.286 204.708C331.641 204.085 328.684 203.774 325.416 203.774C320.437 203.774 315.69 204.319 311.177 205.408C306.665 206.497 302.774 207.82 299.506 209.376C296.238 210.932 293.826 212.255 292.27 213.344ZM400.925 141.45C400.925 136.47 402.715 132.424 406.294 129.312C409.873 126.044 414.153 124.41 419.132 124.41C424.112 124.41 428.314 126.044 431.737 129.312C435.316 132.424 437.106 136.47 437.106 141.45C437.106 146.274 435.316 150.32 431.737 153.588C428.314 156.856 424.112 158.49 419.132 158.49C414.153 158.49 409.873 156.856 406.294 153.588C402.715 150.32 400.925 146.274 400.925 141.45ZM382.718 311.149C384.119 312.861 385.753 314.261 387.62 315.351C389.332 316.44 391.355 316.985 393.689 316.985C396.179 316.985 398.28 316.362 399.992 315.117C401.703 313.872 402.948 311.927 403.726 309.282C404.504 306.792 404.893 303.524 404.893 299.478V182.999H434.071V306.481C434.071 314.106 432.671 320.797 429.87 326.555C427.069 332.313 422.867 336.748 417.265 339.86C411.663 343.128 404.738 344.762 396.49 344.762C391.977 344.762 388.087 344.218 384.819 343.128C381.395 342.039 378.517 340.638 376.182 338.927C373.692 337.215 371.514 335.503 369.646 333.791L382.718 311.149ZM516.621 292.709C504.95 292.709 494.757 290.374 486.043 285.706C477.328 281.037 470.559 274.579 465.735 266.332C461.067 257.928 458.732 248.047 458.732 236.687C458.732 225.171 461.067 215.29 465.735 207.042C470.559 198.639 477.328 192.181 486.043 187.668C494.757 182.999 505.028 180.665 516.855 180.665C528.682 180.665 538.719 182.844 546.967 187.201C555.37 191.403 561.75 197.627 566.107 205.875C570.465 213.967 572.643 223.771 572.643 235.286C572.643 236.687 572.565 238.165 572.41 239.721C572.41 241.278 572.332 242.522 572.176 243.456H476.006V224.782H545.799L537.63 235.52C538.252 234.586 538.797 233.341 539.264 231.785C539.886 230.073 540.197 228.673 540.197 227.583C540.197 222.292 539.186 217.78 537.163 214.045C535.295 210.31 532.572 207.353 528.993 205.175C525.414 202.996 521.212 201.907 516.388 201.907C510.475 201.907 505.495 203.229 501.449 205.875C497.559 208.365 494.524 212.177 492.345 217.313C490.322 222.292 489.233 228.517 489.077 235.987C489.077 243.145 490.089 249.214 492.112 254.194C494.291 259.173 497.481 262.986 501.682 265.631C505.884 268.277 510.941 269.6 516.855 269.6C523.546 269.6 529.226 268.355 533.895 265.865C538.719 263.219 542.687 259.329 545.799 254.194L572.176 262.364C566.574 272.479 559.105 280.104 549.768 285.239C540.586 290.219 529.538 292.709 516.621 292.709ZM618.321 236.687C618.321 242.912 619.722 248.358 622.523 253.027C625.324 257.695 629.059 261.352 633.727 263.997C638.551 266.643 643.842 267.966 649.6 267.966C654.269 267.966 658.781 267.265 663.139 265.865C667.496 264.309 671.386 262.286 674.81 259.796C678.389 257.15 681.112 254.116 682.98 250.692V281.738C679.245 285.161 674.343 287.885 668.274 289.908C662.361 291.775 655.436 292.709 647.499 292.709C636.139 292.709 625.869 290.374 616.687 285.706C607.662 281.037 600.503 274.502 595.212 266.098C590.077 257.539 587.509 247.736 587.509 236.687C587.509 225.483 590.077 215.679 595.212 207.275C600.503 198.872 607.662 192.336 616.687 187.668C625.869 182.999 636.139 180.665 647.499 180.665C655.436 180.665 662.361 181.677 668.274 183.7C674.343 185.567 679.245 188.135 682.98 191.403V222.448C681.112 219.024 678.311 216.068 674.577 213.578C670.997 210.932 667.029 208.909 662.672 207.509C658.315 206.108 653.957 205.408 649.6 205.408C643.842 205.408 638.551 206.809 633.727 209.61C629.059 212.255 625.324 215.912 622.523 220.581C619.722 225.249 618.321 230.618 618.321 236.687ZM695.878 182.999H762.171V208.443H695.878V182.999ZM714.319 145.652H743.497V290.374H714.319V145.652ZM776.864 141.45C776.864 136.47 778.653 132.424 782.232 129.312C785.812 126.044 790.091 124.41 795.071 124.41C800.05 124.41 804.252 126.044 807.676 129.312C811.255 132.424 813.044 136.47 813.044 141.45C813.044 146.274 811.255 150.32 807.676 153.588C804.252 156.856 800.05 158.49 795.071 158.49C790.091 158.49 785.812 156.856 782.232 153.588C778.653 150.32 776.864 146.274 776.864 141.45ZM780.132 182.999H809.543V290.374H780.132V182.999ZM832.532 182.999H899.758V208.443H832.532V182.999ZM896.49 138.649C894.934 136.315 893.144 134.758 891.121 133.98C889.254 133.047 887.386 132.58 885.519 132.58C883.185 132.58 881.162 133.202 879.45 134.447C877.894 135.537 876.649 137.404 875.715 140.049C874.781 142.695 874.314 146.041 874.314 150.087V290.374H845.136V143.317C845.136 135.07 846.537 128.145 849.338 122.543C852.139 116.94 856.341 112.661 861.943 109.704C867.545 106.592 874.392 105.036 882.484 105.036C887.308 105.036 891.432 105.658 894.856 106.903C898.279 107.992 901.158 109.393 903.492 111.105C905.982 112.817 907.928 114.451 909.328 116.007L896.49 138.649ZM1020.01 182.999L949.984 341.728H918.939L946.016 279.637L901.432 182.999H935.045L969.592 268.433L954.652 267.966L988.499 182.999H1020.01Z" fill="black"/>
<defs>
<linearGradient id="paint0_linear_6_122" x1="985.791" y1="84.7916" x2="30.829" y2="92.1942" gradientUnits="userSpaceOnUse">
<stop stop-color="#FF602E"/>
<stop offset="1" stop-color="#FFFBA6"/>
</linearGradient>
</defs>
</svg>
