<?xml version="1.0" standalone="no"?>
<!DOCTYPE svg PUBLIC "-//W3C//DTD SVG 20010904//EN"
 "http://www.w3.org/TR/2001/REC-SVG-20010904/DTD/svg10.dtd">
<svg version="1.0" xmlns="http://www.w3.org/2000/svg"
 width="500.000000pt" height="500.000000pt" viewBox="0 0 500.000000 500.000000"
 preserveAspectRatio="xMidYMid meet">
<metadata>
Created by potrace 1.14, written by Peter Selinger 2001-2017
</metadata>
<g transform="translate(0.000000,500.000000) scale(0.100000,-0.100000)"
fill="#000000" stroke="none">
<path d="M2771 3650 l-294 -330 -154 0 c-193 0 -495 -19 -508 -31 -28 -27 1
-333 55 -581 l19 -90 -280 -335 c-154 -184 -279 -336 -277 -338 10 -10 361
-73 673 -120 198 -30 385 -59 415 -64 40 -7 81 -25 150 -69 133 -84 368 -209
545 -290 491 -227 841 -317 1054 -271 88 19 94 28 99 161 7 192 -31 335 -158
593 -138 281 -391 637 -631 890 l-68 71 -165 562 c-91 309 -166 564 -166 567
0 19 -47 -30 -309 -325z m375 -442 l127 -433 91 -100 c307 -337 538 -672 660
-959 60 -141 87 -240 93 -355 l6 -94 -109 6 c-167 10 -369 67 -648 184 -264
111 -685 331 -786 412 -32 25 -54 31 -255 60 -255 37 -707 110 -712 114 -1 2
96 122 217 267 121 145 220 269 220 275 0 5 -18 97 -40 204 -22 106 -42 233
-46 281 l-7 87 129 6 c71 4 204 7 295 7 l167 0 228 256 c196 221 229 254 235
236 4 -11 65 -215 135 -454z"/>
<path d="M3073 2264 c-88 -45 -97 -170 -17 -233 104 -82 257 25 215 152 -27
80 -123 120 -198 81z m99 -81 c20 -18 24 -63 6 -81 -20 -20 -65 -14 -82 10
-21 30 -20 44 4 68 24 24 47 25 72 3z"/>
<path d="M3419 2007 c-24 -13 -57 -43 -74 -66 -27 -38 -30 -51 -30 -116 0 -65
3 -78 30 -117 44 -62 95 -88 174 -88 51 0 73 5 107 25 77 45 118 147 94 233
-13 51 -72 119 -117 139 -51 21 -133 17 -184 -10z m188 -101 c54 -58 43 -143
-23 -187 -60 -39 -152 -11 -180 56 -18 44 -18 59 3 102 38 82 139 96 200 29z"/>
<path d="M1593 3688 c-5 -7 -22 -35 -38 -63 -15 -27 -72 -125 -126 -216 -55
-92 -99 -169 -99 -173 0 -5 161 -196 260 -309 4 -5 2 17 -6 50 -46 194 42 393
209 473 73 35 180 54 266 47 l66 -5 -67 34 c-82 41 -183 82 -335 134 -64 22
-116 40 -118 40 -1 0 -7 -6 -12 -12z"/>
</g>
</svg>
